<svg width="240" height="140" version="1.1" xmlns="http://www.w3.org/2000/svg"><path fill="rgb(254,254,254)" stroke="rgb(254,254,254)" stroke-width="1" opacity="0.4549019607843137" d="M 10 14 L 52 14.5 L 11 15 L 10.5 112 L 10 14 Z "></path><path fill="rgb(254,254,254)" stroke="rgb(254,254,254)" stroke-width="1" opacity="0.4549019607843137" d="M 161 14 L 183 14 L 183 69.5 L 185 68.5 L 187.5 65 L 186 67.5 L 182.5 73 L 182 15 L 162.5 15 L 162 15.5 L 162 111.5 L 161 111.5 L 161 14 Z "></path><path fill="rgb(254,254,254)" stroke="rgb(254,254,254)" stroke-width="1" opacity="0.4549019607843137" d="M 53.5 15 L 57 15.5 L 53.5 16 L 53.5 15 Z "></path><path fill="rgb(254,254,254)" stroke="rgb(254,254,254)" stroke-width="1" opacity="0.4549019607843137" d="M 58.5 16 L 62 17.5 L 60.5 18 L 58.5 16 Z "></path><path fill="rgb(254,254,254)" stroke="rgb(254,254,254)" stroke-width="1" opacity="0.4549019607843137" d="M 63.5 18 Q 71.7 21.3 76 28.5 L 79 34.5 L 78 34.5 Q 75.1 26.4 68.5 22 Q 63.9 20.8 63.5 18 Z "></path><path fill="rgb(254,254,254)" stroke="rgb(254,254,254)" stroke-width="1" opacity="0.4549019607843137" d="M 33.5 35 L 49 35.5 L 33 36 L 33 60 L 49.5 60 L 57 54.5 L 57.5 53 L 58 54.5 Q 55.6 59.6 49.5 61 L 33.5 61 L 32 59.5 L 32 36.5 L 33.5 35 Z "></path><path fill="rgb(254,254,254)" stroke="rgb(254,254,254)" stroke-width="1" opacity="0.4549019607843137" d="M 50.5 36 L 58 41.5 L 57.5 43 L 53.5 38 Q 49.7 37.8 50.5 36 Z "></path><path fill="rgb(254,254,254)" stroke="rgb(254,254,254)" stroke-width="1" opacity="0.4549019607843137" d="M 80.5 39 L 81 42.5 L 80 42.5 L 80.5 39 Z "></path><path fill="rgb(254,254,254)" stroke="rgb(254,254,254)" stroke-width="1" opacity="0.4549019607843137" d="M 109.5 39 L 116 39.5 Q 99.1 41.6 92 53.5 L 87 64.5 L 86.5 72 L 86 62.5 Q 90.1 50.6 99.5 44 L 109.5 39 Z "></path><path fill="rgb(254,254,254)" stroke="rgb(254,254,254)" stroke-width="1" opacity="0.4549019607843137" d="M 123.5 39 L 129.5 39 L 139.5 44 L 148 52.5 L 153 62.5 L 153 70.5 L 152 70.5 Q 150.6 52.4 138.5 45 Q 133.1 40.4 123.5 40 L 123.5 39 Z "></path><path fill="rgb(254,254,254)" stroke="rgb(254,254,254)" stroke-width="1" opacity="0.4549019607843137" d="M 203.5 42 L 227.5 42 L 228 43.5 L 203 77.5 L 229 111.5 L 226 109.5 L 202 77.5 L 227 43.5 L 203.5 43 L 188.5 64 L 190 61.5 L 203.5 42 Z "></path><path fill="rgb(254,254,254)" stroke="rgb(254,254,254)" stroke-width="1" opacity="0.4549019607843137" d="M 58.5 44 L 59 51.5 L 58 51.5 L 58.5 44 Z "></path><path fill="rgb(254,254,254)" stroke="rgb(254,254,254)" stroke-width="1" opacity="0.4549019607843137" d="M 81.5 44 L 82 51.5 L 81 51.5 L 81.5 44 Z "></path><path fill="rgb(254,254,254)" stroke="rgb(254,254,254)" stroke-width="1" opacity="0.4549019607843137" d="M 80.5 54 L 81 56.5 L 80 56.5 L 80.5 54 Z "></path><path fill="rgb(254,254,254)" stroke="rgb(254,254,254)" stroke-width="1" opacity="0.4549019607843137" d="M 115.5 58 L 123.5 58 L 132 64.5 Q 134.7 67.8 134 74.5 Q 132.2 81.7 126.5 85 L 114.5 86 L 107 79.5 Q 104.3 76.2 105 69.5 Q 106.5 63 111.5 60 L 115.5 58 Z M 117 59 L 113 61 Q 108 65 106 72 L 110 82 L 117 85 L 123 85 L 129 82 L 133 74 L 132 68 L 129 62 L 123 59 L 117 59 Z "></path><path fill="rgb(254,254,254)" stroke="rgb(254,254,254)" stroke-width="1" opacity="0.4549019607843137" d="M 78.5 61 L 79 62.5 L 67.5 76 L 61.5 79 L 61.5 78 Q 70.3 74.8 75 67.5 L 78.5 61 Z "></path><path fill="rgb(254,254,254)" stroke="rgb(254,254,254)" stroke-width="1" opacity="0.4549019607843137" d="M 86.5 73 L 87 79.5 L 95 99.5 Q 105.5 118.5 119.5 134 L 142 102.5 L 150 85.5 L 152.5 74 L 153 81.5 L 142 105.5 L 120.5 135 Q 115.5 135.5 115 131.5 L 96 104.5 L 90 92.5 L 90 89.5 L 86 81.5 L 86.5 73 Z "></path><path fill="rgb(254,254,254)" stroke="rgb(254,254,254)" stroke-width="1" opacity="0.4549019607843137" d="M 54.5 80 L 57 80.5 L 54.5 81 L 54.5 80 Z "></path><path fill="rgb(254,254,254)" stroke="rgb(254,254,254)" stroke-width="1" opacity="0.4549019607843137" d="M 33.5 81 L 53 81.5 L 33 82 L 32.5 112 L 32 82.5 L 33.5 81 Z "></path><path fill="rgb(254,254,254)" stroke="rgb(254,254,254)" stroke-width="1" opacity="0.4549019607843137" d="M 182 82 Q 184.7 80.9 184 83.5 L 205 111.5 L 201 108.5 L 183.5 84 L 182.5 112 L 182 82 Z "></path><path fill="rgb(0,0,0)" stroke="rgb(0,0,0)" stroke-width="1" opacity="0" d="M 0 0 L 240 0 L 240 140 L 0 140 L 0 0 Z M 10 14 L 10 112 L 33 112 L 33 82 L 53 82 Q 62 81 68 76 L 78 65 L 82 52 Q 82 37 76 29 Q 69 19 57 15 L 52 14 L 10 14 Z M 161 14 L 161 112 L 162 112 L 183 112 L 184 84 L 205 112 L 229 112 L 203 78 L 228 44 L 228 42 L 204 42 L 185 69 L 183 70 L 183 14 L 161 14 Z M 110 39 L 100 44 Q 90 51 86 63 L 86 82 L 90 90 L 90 93 L 96 105 L 115 132 Q 116 136 121 135 L 142 106 L 153 82 L 153 63 L 148 53 Q 141 43 130 39 L 110 39 Z "></path><path fill="rgb(0,0,0)" stroke="rgb(0,0,0)" stroke-width="1" opacity="0" d="M 33 36 L 49.5 36 L 57 41.5 Q 59.5 45 58 52.5 L 52.5 59 L 49.5 60 L 33 60 L 33 36 Z "></path><path fill="rgb(0,0,0)" stroke="rgb(0,0,0)" stroke-width="1" opacity="0" d="M 116.5 59 L 122.5 59 L 129 62 L 132 67.5 L 133 73.5 L 129 82 L 122.5 85 L 116.5 85 L 110 82 L 106 71.5 Q 107.6 64.5 112.5 61 L 116.5 59 Z "></path><path fill="rgb(254,254,254)" stroke="rgb(254,254,254)" stroke-width="1" opacity="0.996078431372549" d="M 68.5 22 L 73.5 28 L 68.5 22 Z "></path><path fill="rgb(254,254,254)" stroke="rgb(254,254,254)" stroke-width="1" opacity="0.996078431372549" d="M 75.5 30 L 76.5 32 L 75.5 30 Z "></path><path fill="rgb(254,254,254)" stroke="rgb(254,254,254)" stroke-width="1" opacity="0.996078431372549" d="M 54.5 37 L 56.5 40 L 54.5 37 Z "></path><path fill="rgb(254,254,254)" stroke="rgb(254,254,254)" stroke-width="1" opacity="0.996078431372549" d="M 118.5 39 L 121 39.5 L 118.5 40 L 118.5 39 Z "></path><path fill="rgb(254,254,254)" stroke="rgb(254,254,254)" stroke-width="1" opacity="0.996078431372549" d="M 132.5 42 L 133.5 44 L 132.5 42 Z "></path><path fill="rgb(254,254,254)" stroke="rgb(254,254,254)" stroke-width="1" opacity="0.996078431372549" d="M 103.5 43 L 105 43.5 L 102.5 45 L 103.5 43 Z "></path><path fill="rgb(254,254,254)" stroke="rgb(254,254,254)" stroke-width="1" opacity="0.996078431372549" d="M 136.5 44 L 140 46.5 L 138.5 46 L 136.5 44 Z "></path><path fill="rgb(254,254,254)" stroke="rgb(254,254,254)" stroke-width="1" opacity="0.996078431372549" d="M 100.5 45 L 93.5 53 L 100.5 45 Z "></path><path fill="rgb(254,254,254)" stroke="rgb(254,254,254)" stroke-width="1" opacity="0.996078431372549" d="M 200.5 47 L 199.5 49 L 200.5 47 Z "></path><path fill="rgb(254,254,254)" stroke="rgb(254,254,254)" stroke-width="1" opacity="0.996078431372549" d="M 141.5 48 L 142.5 50 L 141.5 48 Z "></path><path fill="rgb(254,254,254)" stroke="rgb(254,254,254)" stroke-width="1" opacity="0.996078431372549" d="M 198.5 50 L 197.5 52 L 198.5 50 Z "></path><path fill="rgb(254,254,254)" stroke="rgb(254,254,254)" stroke-width="1" opacity="0.996078431372549" d="M 221.5 50 L 220.5 52 L 221.5 50 Z "></path><path fill="rgb(254,254,254)" stroke="rgb(254,254,254)" stroke-width="1" opacity="0.996078431372549" d="M 80.5 51 L 81 53.5 L 80 53.5 L 80.5 51 Z "></path><path fill="rgb(254,254,254)" stroke="rgb(254,254,254)" stroke-width="1" opacity="0.996078431372549" d="M 144.5 51 L 145.5 53 L 144.5 51 Z "></path><path fill="rgb(254,254,254)" stroke="rgb(254,254,254)" stroke-width="1" opacity="0.996078431372549" d="M 196.5 53 L 195.5 55 L 196.5 53 Z "></path><path fill="rgb(254,254,254)" stroke="rgb(254,254,254)" stroke-width="1" opacity="0.996078431372549" d="M 146.5 54 L 149 57.5 L 147 56.5 L 146.5 54 Z "></path><path fill="rgb(254,254,254)" stroke="rgb(254,254,254)" stroke-width="1" opacity="0.996078431372549" d="M 218.5 54 L 217.5 56 L 218.5 54 Z "></path><path fill="rgb(254,254,254)" stroke="rgb(254,254,254)" stroke-width="1" opacity="0.996078431372549" d="M 57.5 55 L 54.5 59 L 57.5 55 Z "></path><path fill="rgb(254,254,254)" stroke="rgb(254,254,254)" stroke-width="1" opacity="0.996078431372549" d="M 90.5 57 L 91 58.5 L 89 59.5 L 90.5 57 Z "></path><path fill="rgb(254,254,254)" stroke="rgb(254,254,254)" stroke-width="1" opacity="0.996078431372549" d="M 116.5 57 L 123 57.5 L 116.5 58 L 116.5 57 Z "></path><path fill="rgb(254,254,254)" stroke="rgb(254,254,254)" stroke-width="1" opacity="0.996078431372549" d="M 216.5 57 L 214.5 60 L 216.5 57 Z "></path><path fill="rgb(254,254,254)" stroke="rgb(254,254,254)" stroke-width="1" opacity="0.996078431372549" d="M 113.5 58 L 112.5 60 L 113.5 58 Z "></path><path fill="rgb(254,254,254)" stroke="rgb(254,254,254)" stroke-width="1" opacity="0.996078431372549" d="M 125.5 58 L 131 61 L 132 63.5 L 127.5 60 L 125.5 58 Z "></path><path fill="rgb(254,254,254)" stroke="rgb(254,254,254)" stroke-width="1" opacity="0.996078431372549" d="M 110.5 60 L 107.5 64 L 108 62.5 Q 107.3 60.3 109.5 61 L 110.5 60 Z "></path><path fill="rgb(254,254,254)" stroke="rgb(254,254,254)" stroke-width="1" opacity="0.996078431372549" d="M 213.5 61 L 212.5 63 L 213.5 61 Z "></path><path fill="rgb(254,254,254)" stroke="rgb(254,254,254)" stroke-width="1" opacity="0.996078431372549" d="M 151.5 64 L 153 72.5 L 151 73.5 L 151.5 64 Z "></path><path fill="rgb(254,254,254)" stroke="rgb(254,254,254)" stroke-width="1" opacity="0.996078431372549" d="M 74.5 67 L 72.5 70 L 74.5 67 Z "></path><path fill="rgb(254,254,254)" stroke="rgb(254,254,254)" stroke-width="1" opacity="0.996078431372549" d="M 185.5 69 L 184.5 71 L 185.5 69 Z "></path><path fill="rgb(254,254,254)" stroke="rgb(254,254,254)" stroke-width="1" opacity="0.996078431372549" d="M 207.5 69 L 206.5 71 L 207.5 69 Z "></path><path fill="rgb(254,254,254)" stroke="rgb(254,254,254)" stroke-width="1" opacity="0.996078431372549" d="M 134.5 70 L 135 73.5 L 134 73.5 L 134.5 70 Z "></path><path fill="rgb(254,254,254)" stroke="rgb(254,254,254)" stroke-width="1" opacity="0.996078431372549" d="M 69.5 72 L 68.5 74 L 69.5 72 Z "></path><path fill="rgb(254,254,254)" stroke="rgb(254,254,254)" stroke-width="1" opacity="0.996078431372549" d="M 205.5 72 L 204.5 74 L 205.5 72 Z "></path><path fill="rgb(254,254,254)" stroke="rgb(254,254,254)" stroke-width="1" opacity="0.996078431372549" d="M 151.5 75 L 152 79.5 L 151 79.5 L 151.5 75 Z "></path><path fill="rgb(254,254,254)" stroke="rgb(254,254,254)" stroke-width="1" opacity="0.996078431372549" d="M 202.5 78 L 203.5 80 L 202.5 78 Z "></path><path fill="rgb(254,254,254)" stroke="rgb(254,254,254)" stroke-width="1" opacity="0.996078431372549" d="M 107.5 80 L 111.5 85 L 109 84 L 107.5 80 Z "></path><path fill="rgb(254,254,254)" stroke="rgb(254,254,254)" stroke-width="1" opacity="0.996078431372549" d="M 129.5 82 L 131 82.5 L 127.5 85 L 129.5 82 Z "></path><path fill="rgb(254,254,254)" stroke="rgb(254,254,254)" stroke-width="1" opacity="0.996078431372549" d="M 205.5 82 L 206.5 84 L 205.5 82 Z "></path><path fill="rgb(254,254,254)" stroke="rgb(254,254,254)" stroke-width="1" opacity="0.996078431372549" d="M 115.5 86 L 123 86.5 L 115.5 87 L 115.5 86 Z "></path><path fill="rgb(254,254,254)" stroke="rgb(254,254,254)" stroke-width="1" opacity="0.996078431372549" d="M 148.5 86 L 149 87.5 L 147 88.5 L 148.5 86 Z "></path><path fill="rgb(254,254,254)" stroke="rgb(254,254,254)" stroke-width="1" opacity="0.996078431372549" d="M 208.5 86 L 209.5 88 L 208.5 86 Z "></path><path fill="rgb(254,254,254)" stroke="rgb(254,254,254)" stroke-width="1" opacity="0.996078431372549" d="M 91.5 90 L 93 92.5 L 92 92.5 L 91.5 90 Z "></path><path fill="rgb(254,254,254)" stroke="rgb(254,254,254)" stroke-width="1" opacity="0.996078431372549" d="M 189.5 90 L 190.5 92 L 189.5 90 Z "></path><path fill="rgb(254,254,254)" stroke="rgb(254,254,254)" stroke-width="1" opacity="0.996078431372549" d="M 211.5 90 L 213.5 93 L 211.5 90 Z "></path><path fill="rgb(254,254,254)" stroke="rgb(254,254,254)" stroke-width="1" opacity="0.996078431372549" d="M 192.5 94 L 193.5 96 L 192.5 94 Z "></path><path fill="rgb(254,254,254)" stroke="rgb(254,254,254)" stroke-width="1" opacity="0.996078431372549" d="M 194.5 97 L 195.5 99 L 194.5 97 Z "></path><path fill="rgb(254,254,254)" stroke="rgb(254,254,254)" stroke-width="1" opacity="0.996078431372549" d="M 95.5 98 L 97 100.5 L 96 100.5 L 95.5 98 Z "></path><path fill="rgb(254,254,254)" stroke="rgb(254,254,254)" stroke-width="1" opacity="0.996078431372549" d="M 142.5 99 L 142 100.5 L 140.5 104 L 140 102.5 L 142.5 99 Z "></path><path fill="rgb(254,254,254)" stroke="rgb(254,254,254)" stroke-width="1" opacity="0.996078431372549" d="M 218.5 99 L 219.5 101 L 218.5 99 Z "></path><path fill="rgb(254,254,254)" stroke="rgb(254,254,254)" stroke-width="1" opacity="0.996078431372549" d="M 197.5 101 L 198.5 103 L 197.5 101 Z "></path><path fill="rgb(254,254,254)" stroke="rgb(254,254,254)" stroke-width="1" opacity="0.996078431372549" d="M 221.5 103 L 222.5 105 L 221.5 103 Z "></path><path fill="rgb(254,254,254)" stroke="rgb(254,254,254)" stroke-width="1" opacity="0.996078431372549" d="M 98.5 104 L 99.5 106 L 98.5 104 Z "></path><path fill="rgb(254,254,254)" stroke="rgb(254,254,254)" stroke-width="1" opacity="0.996078431372549" d="M 101.5 108 L 106 114.5 L 103 112.5 L 101.5 108 Z "></path><path fill="rgb(254,254,254)" stroke="rgb(254,254,254)" stroke-width="1" opacity="0.996078431372549" d="M 137.5 108 L 137 109.5 L 135.5 112 L 135 110.5 L 137.5 108 Z "></path><path fill="rgb(254,254,254)" stroke="rgb(254,254,254)" stroke-width="1" opacity="0.996078431372549" d="M 226.5 110 L 227.5 112 L 226.5 110 Z "></path><path fill="rgb(254,254,254)" stroke="rgb(254,254,254)" stroke-width="1" opacity="0.996078431372549" d="M 134.5 113 L 133.5 115 L 134.5 113 Z "></path><path fill="rgb(254,254,254)" stroke="rgb(254,254,254)" stroke-width="1" opacity="0.996078431372549" d="M 106.5 116 L 109 119.5 L 107 118.5 L 106.5 116 Z "></path><path fill="rgb(254,254,254)" stroke="rgb(254,254,254)" stroke-width="1" opacity="0.996078431372549" d="M 132.5 116 L 131.5 118 L 132.5 116 Z "></path><path fill="rgb(254,254,254)" stroke="rgb(254,254,254)" stroke-width="1" opacity="0.996078431372549" d="M 129 119 L 131 119.5 L 128 121.5 L 129 119 Z "></path><path fill="rgb(254,254,254)" stroke="rgb(254,254,254)" stroke-width="1" opacity="0.996078431372549" d="M 110.5 122 L 114 126.5 L 113 126.5 L 110.5 122 Z "></path><path fill="rgb(254,254,254)" stroke="rgb(254,254,254)" stroke-width="1" opacity="0.996078431372549" d="M 127.5 123 L 125 126.5 L 123.5 129 L 124 127.5 L 127.5 123 Z "></path><path fill="rgb(254,254,254)" stroke="rgb(254,254,254)" stroke-width="1" opacity="0.996078431372549" d="M 115.5 128 L 116.5 130 L 115.5 128 Z "></path><path fill="rgb(254,254,254)" stroke="rgb(254,254,254)" stroke-width="1" opacity="0.996078431372549" d="M 117.5 131 L 119.5 133 L 122 131.5 Q 118.8 136.8 117.5 131 Z "></path><path fill="rgb(255,255,255)" stroke="rgb(255,255,255)" stroke-width="1" opacity="1" d="M 11 15 L 50.5 15 L 55.5 16 L 63.5 19 L 75 28 L 80 40.5 L 81 50.5 L 79 60.5 L 70.5 72 L 68 73.5 Q 68.8 75.8 66.5 75 L 52.5 81 L 32 81 L 32 112 L 11 112 L 11 15 Z M 32 35 L 32 61 L 51 61 L 55 59 L 59 53 Q 61 44 57 40 L 52 36 L 50 36 L 49 35 L 32 35 Z "></path><path fill="rgb(255,255,255)" stroke="rgb(255,255,255)" stroke-width="1" opacity="1" d="M 162 15 L 182 15 L 182 72.5 L 184 73 L 186 67 L 188 67 L 188 64 Q 190.7 65.1 190 62.5 L 193 57 Q 195.7 58.1 195 55.5 L 203 43 L 227 43.5 L 225 44 L 225 47 Q 222.3 45.9 223 48.5 Q 214 57.3 209 69 L 206 70.5 L 202 78.5 L 205 80 L 206.5 84 Q 209.1 83.2 208 86.5 L 211 88 L 211 90.5 L 215 96 Q 217.7 94.9 217 97.5 L 224 108 Q 227 106.8 226 110.5 L 226.5 112 L 205.5 112 L 202 108.5 L 188 87 Q 185.3 88.1 186 85.5 L 182.5 81 L 182 112 L 162.5 112 L 162 111.5 L 162 15 Z "></path><path fill="rgb(255,255,255)" stroke="rgb(255,255,255)" stroke-width="1" opacity="1" d="M 117.5 39 L 120.5 40 L 122.5 40 Q 130.3 39.7 133.5 44 L 136 43 L 137.5 46 L 141 47 L 142.5 50 Q 144.8 49.3 144 51.5 L 147 53.5 L 147 55.5 L 151 61.5 L 151.5 74 L 153 73.5 L 151 75.5 Q 151.8 81.8 149 84.5 L 149.5 86 Q 147.3 85.3 148 87.5 L 147.5 90 L 146 90.5 L 147 93 L 145 93 L 145 97 L 143.5 97 L 143.5 99 L 142 99.5 L 142.5 101 L 141 100.5 L 139 108 L 135 110.5 L 131 119 Q 128.3 117.9 129 120.5 L 125 125.5 L 125.5 127 L 124 126.5 L 119.5 133 L 116 130.5 Q 118.3 129.3 115.5 128 Q 112.9 128.8 114 125.5 L 106.5 116 L 105 115.5 Q 107.5 114 104 112.5 L 102 108 Q 99 109.3 100 105.5 L 96.5 99 L 95 99.5 L 95.5 98 L 94 97.5 L 94 95.5 L 92.5 91 L 91 91.5 L 91 89.5 L 87 78.5 L 87 66.5 L 89 62.5 L 88 61.5 L 91 58.5 L 90 56.5 L 92 56 Q 90.5 52.2 93.5 53 Q 97.2 46.1 105 43.5 Q 104.1 40.5 108.5 42 L 117.5 39 Z M 117 57 Q 115 60 114 58 L 108 61 L 106 67 L 106 69 L 104 72 L 105 75 L 105 77 L 109 84 L 116 87 L 123 87 Q 124 83 126 86 L 130 84 Q 132 83 130 82 L 132 81 L 135 71 Q 131 69 134 68 Q 131 66 131 61 L 127 59 L 125 59 Q 123 56 117 57 Z "></path></svg>